<svg width="24" height="24" fill="none" xmlns="http://www.w3.org/2000/svg"><path d="M.88 7.376c-.164.33-.274.66-.385.991h1.872l-1.486-.99zm22.24 9.248c.164-.33.274-.66.385-1.046h-1.927l1.541 1.046zM3.468 20.477c1.376 1.376 3.027 2.422 4.954 3.028v-6.276l-4.954 3.248zM8.367.495a12.44 12.44 0 00-4.954 3.028l4.954 3.303V.496zM23.45 8.367c-.11-.33-.22-.66-.386-.99l-1.541.99h1.927zm-7.872 15.138a12.44 12.44 0 004.954-3.028l-4.954-3.303v6.33zM.495 15.633c.11.33.22.716.386 1.046l1.541-1.046H.495zm20.037-12.11C19.156 2.147 17.505 1.1 15.578.495v6.33l4.954-3.302z" fill="#01247D"/><path d="M23.835 14.092h-9.743v9.743c.495-.11.99-.22 1.486-.386v-6.275l4.954 3.303c.55-.55 1.046-1.156 1.486-1.817l-4.569-3.027h2.863l2.477 1.651c.11-.22.165-.385.275-.605l-1.541-1.046h1.927c.165-.495.275-.99.385-1.541zM8.367.495v6.33L3.413 3.524c-.55.55-1.046 1.156-1.486 1.816L6.55 8.422H3.688L1.156 6.716l-.33.66 1.541.991H.495C.33 8.862.22 9.357.11 9.853h9.743V.11c-.495.165-.99.275-1.486.385zM.165 14.092c.11.495.22.99.385 1.486h1.927L.936 16.624c.275.716.66 1.376 1.046 1.982l4.568-3.028h1.872v.66l-5.45 3.634c.166.22.33.385.551.605l4.954-3.303v6.276c.495.165.99.275 1.486.385v-9.743H.165zM23.45 8.367h-1.872l1.541-.99a9.075 9.075 0 00-1.1-2.038l-4.625 3.083h-1.761v-.716l5.45-3.633a4.962 4.962 0 01-.496-.55l-4.954 3.303V.496A14.44 14.44 0 0014.147.11v9.743h9.743c-.165-.495-.275-.99-.44-1.486z" fill="#fff"/><path d="M23.835 9.908h-9.743V.165A12.88 12.88 0 0012 0c-.716 0-1.431.055-2.092.165v9.743H.165C.055 10.568 0 11.284 0 12c0 .716.055 1.431.165 2.092h9.743v9.743c.66.11 1.376.165 2.092.165.716 0 1.431-.055 2.092-.165v-9.743h9.743c.11-.66.165-1.376.165-2.092 0-.716-.055-1.431-.165-2.092z" fill="#CF142B"/><path d="M17.505 15.633l4.569 3.028c.275-.44.55-.881.77-1.377l-2.477-1.65h-2.862zm-1.927-7.266h1.762l4.623-3.083a7.163 7.163 0 00-.99-1.266l-5.45 3.633v.716h.055zm-7.211 7.266H6.495l-4.568 3.028c.275.44.605.88.935 1.266l5.45-3.633v-.66h.055zM6.605 8.367L1.982 5.284c-.276.44-.55.881-.771 1.376l2.532 1.707h2.862z" fill="#CF142B"/></svg>