<svg width="119" height="31" fill="none" xmlns="http://www.w3.org/2000/svg"><path d="M19.482 30.292c-.26-.283 1.734-2.137-.347-.793.852-1.358.65-.014 1.098-1.755.52.68.477-.311 1.156-.962.03-.51.16 1.302.232-.113.838-.17.722.34 3.642-.227.419.127.867-.028.939.779.217-.623 1.676-.496-.477-1.628 1.315-.963 1.402 2.321 1.56-1.586-.534.085 2.299-1.57.232-2.038.318-.75 3.859-1.614.231-1.642-3.382-2.28 3.801-1.444 2.66.51.173-.1.245.17.462-.453.867-1.416-2.963-.821-.174-2.209-1.112.114-.737 1.034-2.716.736-1.417-1.543-.477.298.578-1.075-.044-.397-.535.849-.81.226-.679-1.047 1.893-1.175 1.156-1.302-3.584 1.104-.664-.651-2.832-.85.462.213-.708-.453-.867-2.151-.795-.326-1.301.722-.694-1.982.087-1.019 2.63.736 2.428.453-.202-.226-.506-.92-.81-.51-.13.057.102-.75-.52-2.434-1.43-.24-.578-1.147-.23-1.529.982-.948-.536-.368-1.042-1.699-.216-.056-.765.991-1.734-.283.072-.127 0-.976-2.254-2.491.549-1.486-.91-.283-1.908-1.585-.882 1.104-3.54-.61-4.162-1.699.376.538-6.46-.297-1.792 1.472-2.053 4.473-5.998 1.373-7.226 5.549-.68-.41 1.098.481-.81.396.896.807-.693-.17-.058.623-1.069 1.458-2.47.75-2.6 2.378-.854.198-.666.609-.521.34.347-.453.737 1.585.578.283.954-.51-1.388 1.486-.636 2.152.145.65.535-.467 1.098.396-.144.75-3.295-.58-.867.85 1.691.098-1.33-.907 3.295-.114.81.1-.26 1.741-.578.397.188-.27-2.269-.029-2.139.396-.115-.156-.014.439-.289.113.708-.17-1.517-.17.058.34-.188.538-1.286-.255-1.156.623-.491-.199 3.425.58.636 1.132-.896.58-.91-.17-1.272-.34.101.467.275 4.36 1.792 2.378.202-.637.347-.438 1.04-1.642-.158 1.204-1.878-3.071 1.62-2.151 1.575.594-2.588.906-1.041.736.795-.17 2.37.127.578 1.132.968.623-.78 2.223-.578 2.095.26 1.529-.607.397-1.214 1.472.621.694-1.301 1.458.867 3.567.115-.594 1.647-.155.983-.679 1.806 1.302.664-2.463 1.445-.453-.044.283.144.07.231-.283.463-.156-.723-.793.231-1.19.174.128.593-.07.29-.226.549-.467 1.98-1.543.866-2.717-.086.155.058-1.5.925-.397-.043.014-.534-1.132.405-.906.188 1.147 2.573-.623 3.006.85.304.042.723.396.694.453.072-.963 3.02.707.983 1.019 1.33.382-.246 1.118 1.33.623.765.495-1.822 1.26-1.504 2.434.29 1.175-.52-.113-.462.85.23-.68.072 2.264-1.33 1.415.68 1.458-.766-.226-.231.736.289.057.462 2.76-.752.113.232 1.36-.448-.113-.578.907 2.688.835-1.416.438-2.601.962.274.906 3.324 1.968 4.856 2.322 1.373.467 5.723 1.118 7.63-.114zm6.995-3.68c-.03-.014.057.07-.058.057 0-.015-.16-.085.058-.057zm2.138-6.059c-.028.015.073 0 .058.114-.043-.015-.072.056-.058-.114zm-.751-.113c-.058 0-.058 0 0 0 .029 0 .202.142 0 0zm2.832.227c0 .113-.332.042-.115-.057-.043-.028.087-.085.116.057zm-3.179-3.001c.043-.1.159.495 0 .283.015.014-.275-.24 0-.283zm-.289-.227c-.087-.184.448.071.058.113.086.043-.188-.099-.058-.113zm-.29.85c0 .113 0 .113 0 0 0-.1.348.141 0 0zm-1.733-4.02h-.058.058zm.925 8.662c-.217.142-.42-.297.057 0h-.057zm.578 1.303c.332.453-.954.467-.116-.057-.043-.028.087-.085.116.057zm0-6.285c.202-.043-.015-.113.058.056.028.043-.073.199-.058-.056zm-.116-1.246c-.014-.184.13-.297 0 .057v-.057zm-.058 2.208c.145-.325.318.397.058.227-.072.085-.231-.113-.058-.227zm-.173-2.66c.043.013.116-.043.058.112.029-.056-.044 0-.058-.113zm-.694.396c.043-.029.072.028.174.056-.03-.014-.145.17-.174-.056zm-.751-2.492l.057.057c.073-.028-.216.056-.057-.057zm-.29.227c-.057 0-.057 0 0 0 .087.014.145.368 0 0zm-.057.962c-.03.014.072 0 .058.114-.044-.015-.073.056-.058-.114zm-.347 3.85c.101-2.703.173 3.497 2.717 3.115-.954 1.6-3.078-.807-2.717-3.114zm1.56-9.512c.044.014.073-.056.059.113-.044-.014-.073.057-.058-.113zm-.173 1.529c0 .283 0 .283 0 0 .145-.142.463.311 0 0zm-.751-1.982c0 .057 0 .057 0 0-.015-.028.159.043 0 0zm-.752 3.567c-.014-.028.073.057.058-.056.029.014-.029.226-.058.056zM20.58 27.744c.058-.056.058-.056 0 0-.043.071-.13-.198 0 0zm.116-7.927c-.102-.127.043-1.132.173-.34-.072.241.145.326-.173.34zm.23-1.528c0 .056 0 .056 0 0-.014-.029.16.042 0 0zm-.057-.34c-.043.085.101-.184.116-.057-.015-.014 0 .071-.116.057zm.173.736c-.072-.184.376-.396.116.17.043.141-.665.056-.116-.17zm.116-.396c.058.056.058.056 0 0-.014-.085.246-.17 0 0zm-.173 8.946c-.03.141-.448.056-.058-.057.014 0 .087-.269.058.057zm.057-7.587c-.043-.015-.072.056-.057-.114.043.014.072-.056.057.114zm0-.567c-.043-.014.203-.127.058.057-.029.014.058-.07-.058-.057zm.174.51c.058 0 .058 0 0 0-.116.184-.203-.198 0 0zm.058-.34c0-.056 0-.056 0 0 .029.227-.463-.028 0 0zm.057-.17c0-.056 0-.056 0 0 .044.014-.144-.07 0 0zm.232-.283c.1.368-.506.255-.058-.17.13-.014-.058 0 .058.17zm0-.34c-.058.227-.434.043-.174-.226.058-.028.275.17.174.226zm0-.51c.159.44-.578-.056-.058-.112.014.028-.029.056.058.113zm.23.794c0-.057 0-.057 0 0 .088.155-.346-.015 0 0zm.232-2.265c-.043-.014-.072.056-.058-.114.044.015.073-.056.058.114zm-.115-1.133c.057 0 .057 0 0 0-.03.043.057-.297 0 0zm.982 1.586c-.072-.029 0 .085-.173.056.043.085.173-.34.173-.056zm.578-2.605c.116-.042-.823 1.614-1.618.397.795.07.679-1.02 1.618-.397zm-.636-6.002c0 .057-.115.184-.23.227.072 0 0-.213.23-.227zm-.057-1.076c-.116.1-.333-.31.057-.17 0 .057.03.029-.057.17zm.751 5.832c.145.128.058 0 .116-.113.014 0-.015.382-.116.114zM23.355 7.7c0 .114 0 .114 0 0 .072-.254.159.114 0 0zm-.116 5.776c.13-.496.81.453.694.566-.78-.085-1.2-.198-.694-.566zm-.694-7.021c.044-.354.636.552.52.396-.187-.127-.635.538-.52-.396zm-.925.906c.102.368 1.099-.44 1.041.85-.274.254-1.272-.1-1.04-.85zm-.751-.793c.405-.198.882 1.048.289.566.101-.141-.506-.368-.289-.566zm-.116 11.777c.044.043.405.085.058.34-.014-.043-.072-.142-.058-.34zm-.057-.056c-.03-.015-.058.028-.116-.057 0-.014.173-.283.116.057zm-.174-10.645c-.058.056-.058.056 0 0 .044-.043.145.184 0 0zm0 11.494c-.029-.043.087-.113.058.056-.029.015.058-.07-.058-.056zm-.115.623c-.087-.156.404-.496.173-.227-.029-.085-.014.425-.173.227zm-.058 7.927c-.087.028.245.056.058.113.057.014-.203-.113-.058-.113zm-.232-24.404c-.028.014.073 0 .058.113-.043-.014-.072.057-.058-.113zm0 3.794c-.014-.029.073.056.058-.057.03.014-.029.226-.058.057zM1.793 10.645c0-.057 0-.057 0 0 .015.028-.159-.043 0 0zm0-.114h.116-.116zm.29 3.511c-.044.156-.348-.057-.059-.113-.029.014.073 0 .058.113zm-.695 3.964c0 .056 0 .056 0 0 .073-.071.188.198 0 0zm.232 1.472c-.13.155-.434-.213-.058-.34 0-.043-.015.17.058.34zm0-.623c.144.665-1.633-.156-.174-.283-.072.042.217-.071.174.283zm.289.056c-.174 0-.174 0 0 0-.015.114-.275.326 0 0zm.115-.849c-.115.113-.361-.311-.115-.113.029 0 .419.226.115.113zm.232.396c0-.113 0-.113 0 0 .086.043-.506-.056 0 0zm.173-.396c0 .156-.347-.042-.173-.113.072-.014-.044.141.173.113zm-.116-.566c.03-.043-.072.127.058.113 0 .255-.289.142-.058-.113zm-.115 4.813c0-.057 0-.057 0 0 .072.014-.275-.085 0 0zm7.11-7.588c1.07.213.101.482-.578 1.133-.636.127-.621-.552-1.04-.453.505-.609.794-.68 1.618-.68zm-1.734-.17c-.202-.127.636-.537.578-.113-.159.156-.275.41-.578.114zm-.231.34c-.29 0 .159-.722.115-.283-.072-.099.16.27-.115.283zm.058.34c.028.184-.477.198-.232 0-.029-.085.044-.07.232 0zm.057-1.982c-.274 0-.144-.34.29-.113-.058.057-.015 0-.29.113zm.058-1.415c.116 0 .116 0 0 0-.029-.043.174-.368 0 0zm.231 1.755c.03 0-.187.453-.173.113.029-.028-.058-.141.173-.113zm1.099.68c.086-.015.289-.184.289 0 .072.014-.145.17-.29 0zm-.116-.85c-.13 1.09-1.72.496-.462.113.318.213.043-.226.462-.113zm-.52-1.302c.043-.198-.043 1.047-.174.34-.216.325-.505-.552.174-.34zm-.231 1.472H7.92c.014-.014-.03-.113.058 0zM8.44 12.4c-.043-.326.347.184.058.396-.16.029-.304-.085-.058-.396zm-.058-.34c0-.113 0-.113 0 0 .101.071-.621-.113 0 0zm-.867-1.642c0 .057 0 .057 0 0-.043 0 .16.184 0 0zm-.058.114c.275.297.448-1.232.694.962-.376.41-.491-.396-.694-.963zm-.289.226c-.072-.41.578.425.058.17.029 0-.058-.029-.058-.17zm0 .283c.969 1.118-1.618.34.058 1.529-2.095.722-1.055-1.996-.058-1.529zm-.347 2.548c-.086-.156.232.156.058.17 0-.057.03-.028-.058-.17zm.058-.34c-.043.156-.982.17-.231-.17-.159.17.564-.155.231.17zm-.058.736c0 .27-.433.128-.867.114-.766-.326.68-1.119.867-.114zm-.52.623c.03.128-.419-.028-.058-.056.03-.015-.057.07.058.056zm-.925.114c-.058-.27.55-.85.636-.114-.087.1-.376.27-.636.114zm0-.397c-.058 0-.058 0 0 0 .03.014-.086.24 0 0zm-.058-.34c.058.057.058.057 0 0-.043-.028.203.043 0 0zm.636.34c-.058-.085-.014-.311.116 0-.072-.056-.015.128-.116 0zm.232-1.415c.144.113-.52.212-.174-.114.015-.014.072.1.174.114zm.578-7.814c0 .057 0 .057 0 0-.015-.028.159.042 0 0zM5.029 8.889c-.13-.99 2.356.029 1.792 1.076-1.156.524-.664 1.713-1.792-1.075zm-3.295 2.888c-.014-.113.217-.184.058.057.015-.028-.072.056-.058-.057zm-.058.68c0 .056 0 .056 0 0-.028-.199.39.042 0 0zm.232.51c0-.057 0-.057 0 0-.058.027-.188-.043 0 0zm0-.114c0-.057 0-.057 0 0 .014.07-.593-.057 0 0zm.347-.113c-.102.07-.13-.156-.058 0-.015.042.072-.142.058 0zm.693.283c0-.057 0-.057 0 0-.014.085-.26-.057 0 0zm1.503 1.019c0-.057 0-.057 0 0 .015.028-.404-.085 0 0zm0 3.964c-.375-.213.636-1.982.405-.227-.029-.043-.26.382-.405.227zm.52 5.605c.102.311-.751-.326-.288-.566.043-.071.635-.27.289.566zm.232.057c.029.056.159.07-.058.17-.072.028-.246.098.058-.17zm-.116-9.74c-1.127.34-3.18-.806-.289-.792.361.467 0 .184.29.793zm.058-1.415c.029.142-1.113.029-.116-.34.13.071.246-.084.116.34zm.058-1.812c-.145.043-.434.453-.347.85-.318.198-1.546-.071.173.396-1.286.467-2.601.99-2.89.283-1.012 1.685 1.373-5.308 1.503-2.208-.78.906 2.645-2.01 1.56.68zm.462 12.4c-.058.057-.058.057 0 0 .03-.028-.043.241 0 0zm-.173-.34c-.087-.056.26-.127.058.057.043.029-.203-.042-.058-.056zm.751-.849c.015.029-.347-.042-.173-.17.029-.014.159.057.173.17zm-.115-6.568c.289 1.33-.983 2.959-.694.283-.564-.891.578-.17 1.387-1.302.405-.255-.028 1.147-.693 1.02zm.693-.056c.015.056 0 .07-.23.056.086.029-.03-.056.23-.056zm-.346 1.811c-.174.015-.246-.141.057 0h-.057zm1.214.85c0-.057 0-.057 0 0-.015.099-.29-.014 0 0zm3.757-.566c-.13 1.075-2.558-.34-4.393-.397-.665.651-.839-2.66.404-1.132-.664.934.752-1.034.81.453-.073-.425 1.734-.892.578.056.029-.424 1.907.58.81.057-.42-.878-.073-.665.288-1.132.231-.029 1.142.68 1.503 2.095zm2.602 3c.028.1-.102.213 0-.056v.057zm-1.272 4.53c-.376.029-.03-.594 0-.113-.044 0 .144.014 0 .113zm.115-.906c-.028-.07.058.142-.115.227-.044.297.1-.864.115-.227zm.29-1.019c.057-.113.057-.113 0 0-.102.057.173-.566 0 0zm.115.17c.029-.014-.043.156-.058 0-.043.014.217-.156.058 0zm.347-1.246c-.116.1-.072-.325.173-.17-.014.057.044.085-.173.17zm.462 5.889c-.086.113-.072.014-.289.113.044.057.217-.325.29-.113zM16.13 2.774c.014.397-1.576.199-.347-.113-.043.128.303-.24.347.113zm3.18 22.422c0-.056 0-.056 0 0 .071.1-.174-.014 0 0zm.288-3.34c-.029.127-.376.056-.058 0-.014.042.073-.142.058 0zm-.115-1.02c.043.015.1-.042 0 .114-.058.042-.217.155 0-.113zm-.232 1.246c.015-.028 0 .071.116.057.014-.029-.13.07-.116-.057zm-.925-19.93c.03-.298.55.085.232.17.058-.015-.13.028-.232-.17zm-.404 19.477c.39-.283.332-.297.983-.34.433.524-.52 1.034-.983.34zm-.405 1.472c-.014-.028-.39-.269-.231-.396 0 .156.13.113.231.396zm.983-.17c.173.935-.838 1.374-.52-.17-.203-.183-.232 1.133-.81-.679.434-.368.52 1.076.578-.34.318.425.853.184.752 1.19zm.578.17c.072.184-.694-.396-.347-.622-.014 0 1.142.566.347.622z" fill="#9FDDFF"/><path d="M37 26V6h3.777l6.662 15.175L53.964 6h3.64v20h-3.366V12.07L48.908 26h-3.104l-5.439-13.93V26H37zm24.724 0V6h8.791c4.01 0 6.016 1.879 6.016 5.636 0 4.075-2.742 6.541-8.228 7.399l-.521-3.3c3.296-.607 4.944-1.935 4.944-3.987 0-1.66-.815-2.49-2.445-2.49h-4.917V26h-3.64zm40.012 0H98l8.338-20h3.914l8.516 20h-3.914l-2.239-5.454h-6.525l1.25-3.217h3.956l-3.09-7.51L101.736 26zM80 26V6h15v20h-3V9.259h-8.635V26H80z" fill="#fff"/></svg>