<svg width="72" height="72" fill="none" xmlns="http://www.w3.org/2000/svg"><g filter="url(#filter0_d)"><circle cx="36" cy="34" r="32" fill="#38B7FF"/></g><path d="M38.98 46.423a.57.57 0 01-.572-.578v-6.927a.57.57 0 01.572-.577h6.874a.57.57 0 01.573.577.57.57 0 01-.573.578h-6.3v6.35a.584.584 0 01-.574.577z" fill="#fff"/><path d="M38.98 47H27.146c-.63 0-1.146-.52-1.146-1.154v-6.928c0-.635.515-1.154 1.146-1.154.63 0 1.145.52 1.145 1.154v5.773h10.22l6.198-6.246V23.309H27.146a1.154 1.154 0 010-2.309h18.708c.63 0 1.146.52 1.146 1.154V38.93c0 .312-.126.6-.332.82l-6.874 6.927a1.244 1.244 0 01-.814.323z" fill="#fff"/><path d="M31.316 27.754v1.362c0 1.686-.802 2.598-2.44 2.598h-.78v3.949h-1.638V25.156h2.418c1.626 0 2.44.912 2.44 2.598zm-3.22-1.097v3.556h.78c.526 0 .801-.242.801-.993v-1.58c0-.75-.286-.993-.802-.993h-.779v.011zm3.976-1.501h2.59c1.638 0 2.44.912 2.44 2.598v5.31c0 1.687-.802 2.599-2.44 2.599h-2.59V25.156zm1.638 1.501v7.505h.928c.527 0 .837-.266.837-1.016v-5.461c0-.75-.31-1.016-.837-1.016h-.928v-.012zm6.072 3.163h2.12v1.502h-2.12v4.34h-1.638V25.157h4.33v1.501h-2.692v3.164z" fill="#fff"/><defs><filter id="filter0_d" x="0" y="0" width="72" height="72" filterUnits="userSpaceOnUse" color-interpolation-filters="sRGB"><feFlood flood-opacity="0" result="BackgroundImageFix"/><feColorMatrix in="SourceAlpha" values="0 0 0 0 0 0 0 0 0 0 0 0 0 0 0 0 0 0 127 0"/><feOffset dy="2"/><feGaussianBlur stdDeviation="2"/><feColorMatrix values="0 0 0 0 0 0 0 0 0 0 0 0 0 0 0 0 0 0 0.15 0"/><feBlend in2="BackgroundImageFix" result="effect1_dropShadow"/><feBlend in="SourceGraphic" in2="effect1_dropShadow" result="shape"/></filter></defs></svg>