<svg width="24" height="24" fill="none" xmlns="http://www.w3.org/2000/svg"><path fill-rule="evenodd" clip-rule="evenodd" d="M12 0C5.373 0 0 5.373 0 12s5.373 12 12 12 12-5.373 12-12S18.627 0 12 0zm5 7.875c.552.15.985.596 1.133 1.162.267 1.024.267 3.163.267 3.163s0 2.138-.267 3.163A1.625 1.625 0 0117 16.525c-.997.275-5 .275-5 .275s-4.003 0-5-.275a1.625 1.625 0 01-1.133-1.162C5.6 14.338 5.6 12.2 5.6 12.2s0-2.138.267-3.163A1.623 1.623 0 017 7.875c.997-.275 5-.275 5-.275s4.003 0 5 .275z" fill="#fff"/><path d="M10.8 14.4v-4l3.2 2-3.2 2z" fill="#fff"/></svg>