<svg width="82" height="20" fill="none" xmlns="http://www.w3.org/2000/svg"><path d="M0 20V0h3.777l6.662 15.175L16.963 0h3.64v20h-3.365V6.07L11.908 20H8.806L3.365 6.07V20H0zm24.724 0V0h8.791c4.01 0 6.016 1.879 6.016 5.636 0 4.075-2.742 6.541-8.227 7.399l-.522-3.3c3.296-.607 4.944-1.935 4.944-3.987 0-1.66-.815-2.49-2.444-2.49h-4.918V20h-3.64zm40.012 0H61l8.338-20h3.914l8.516 20h-3.914l-2.24-5.454H69.09l1.25-3.217h3.956l-3.09-7.51L64.736 20zM43 20V0h15v20h-3V3.259h-8.635V20H43z" fill="#fff"/></svg>